<svg width="128" height="128" viewBox="0 0 128 128" fill="none" xmlns="http://www.w3.org/2000/svg">
<rect width="128" height="128" rx="64" fill="white"/>
<path d="M34.0015 84.2347C31.9806 84.2356 30.0074 84.8421 28.3422 85.9741C26.677 87.1062 25.3979 88.7106 24.6737 90.5759C23.9495 92.4411 23.8142 94.4796 24.2856 96.4225C24.7569 98.3653 25.8129 100.121 27.3141 101.459C28.8154 102.796 30.6915 103.653 32.6949 103.915C34.6984 104.177 36.7351 103.832 38.5366 102.927C40.338 102.021 41.8195 100.597 42.7857 98.8423C43.7519 97.0875 44.1575 95.0844 43.9488 93.0971L84.9641 81.8368C85.9404 83.8904 87.6021 85.5491 89.6698 86.5341C91.7374 87.5192 94.0851 87.7704 96.3181 87.2457C98.5511 86.7211 100.533 85.4524 101.932 83.653C103.33 81.8535 104.059 79.6331 103.996 77.3648C103.934 75.0965 103.083 72.9187 101.587 71.1974C100.092 69.4761 98.0426 68.3163 95.7839 67.9129C93.5253 67.5095 91.195 67.8871 89.1848 68.9823C87.1746 70.0774 85.607 71.8233 84.7456 73.9266L43.9777 64.958C43.9859 64.7917 44.0029 64.6284 44.0029 64.4607C44.0007 62.7506 43.5496 61.0704 42.6939 59.5843C41.8381 58.0982 40.607 56.857 39.1207 55.9821L43.651 44.483C45.4371 44.8471 47.29 44.7207 49.0085 44.1174C50.7271 43.5142 52.2458 42.4572 53.3998 41.0611L71.2948 51.1686C70.8847 52.2564 70.6737 53.4077 70.6718 54.5685C70.669 56.4542 71.2117 58.3014 72.2358 59.8922C73.26 61.4829 74.7229 62.751 76.452 63.5469C78.1812 64.3428 80.1044 64.6332 81.9951 64.384C83.8857 64.1347 85.6648 63.3562 87.1226 62.1402C88.5804 60.9242 89.6561 59.3215 90.2228 57.521C90.7896 55.7205 90.8237 53.7973 90.3213 51.9782C89.8188 50.1591 88.8007 48.52 87.387 47.2542C85.9732 45.9884 84.2229 45.1486 82.3423 44.8339V42.5436L103.418 34.9681L79.0085 24V44.8339C76.6296 45.2309 74.476 46.4646 72.9447 48.3078L55.0518 38.2003C55.7091 36.4378 55.845 34.5267 55.4435 32.6907C55.0421 30.8547 54.1199 29.1697 52.785 27.833C51.4501 26.4963 49.7577 25.5631 47.9059 25.1428C46.054 24.7225 44.1194 24.8324 42.3284 25.4596C40.5374 26.0868 38.9642 27.2054 37.793 28.6845C36.6217 30.1635 35.9008 31.9418 35.7146 33.8112C35.5285 35.6806 35.8848 37.5637 36.7419 39.2402C37.599 40.9166 38.9214 42.317 40.5543 43.2775L36.024 54.7766C34.1627 54.3966 32.2304 54.5488 30.4534 55.2153C28.6764 55.8819 27.1283 57.0353 25.9904 58.5404C24.8526 60.0454 24.172 61.8399 24.0285 63.7135C23.8851 65.5872 24.2846 67.4625 25.1802 69.1197C26.0759 70.777 27.4307 72.1477 29.0859 73.0712C30.7412 73.9946 32.6283 74.4327 34.5263 74.3341C36.4243 74.2355 38.2545 73.6043 39.8027 72.5143C41.3509 71.4244 42.5529 69.9209 43.268 68.18L84.0366 77.1492C84.027 77.3155 84.0099 77.4788 84.0099 77.6466C84.0099 77.989 84.0277 78.3313 84.0633 78.672L43.0442 89.9279C42.2389 88.2283 40.9609 86.7904 39.3596 85.7823C37.7584 84.7741 35.8999 84.2374 34.0015 84.2347ZM34.0015 100.714C32.6828 100.714 31.3937 100.328 30.2972 99.6034C29.2007 98.8791 28.3461 97.8496 27.8415 96.6451C27.3368 95.4406 27.2048 94.1152 27.462 92.8365C27.7193 91.5578 28.3543 90.3832 29.2868 89.4614C30.2193 88.5395 31.4073 87.9117 32.7007 87.6573C33.9941 87.403 35.3347 87.5335 36.5531 88.0324C37.7714 88.5314 38.8128 89.3762 39.5454 90.4603C40.2781 91.5443 40.6691 92.8188 40.6691 94.1225C40.6669 95.87 39.9637 97.5452 38.7137 98.7808C37.4637 100.016 35.7691 100.711 34.0015 100.713V100.714ZM94.0098 71.0511C95.3285 71.0511 96.6176 71.4377 97.7141 72.162C98.8106 72.8863 99.6652 73.9158 100.17 75.1203C100.675 76.3248 100.807 77.6502 100.549 78.9289C100.292 80.2076 99.657 81.3822 98.7245 82.304C97.792 83.2259 96.604 83.8537 95.3106 84.1081C94.0172 84.3624 92.6766 84.2319 91.4582 83.733C90.2399 83.234 89.1986 82.3892 88.4659 81.3051C87.7333 80.2211 87.3422 78.9466 87.3422 77.6429C87.3442 75.8958 88.0469 74.2208 89.2963 72.9852C90.5456 71.7496 92.2397 71.0543 94.0069 71.0518L94.0098 71.0511ZM82.3423 29.1182L94.6032 34.629L82.3423 39.0367V29.1182ZM79.0085 48.2155V54.5729H82.3423V48.2155C83.9136 48.6166 85.283 49.5705 86.1938 50.8984C87.1046 52.2263 87.4943 53.837 87.2898 55.4286C87.0853 57.0202 86.3007 58.4835 85.083 59.5441C83.8654 60.6047 82.2982 61.1898 80.6754 61.1898C79.0525 61.1898 77.4854 60.6047 76.2677 59.5441C75.05 58.4835 74.2654 57.0202 74.0609 55.4286C73.8564 53.837 74.2461 52.2263 75.1569 50.8984C76.0678 49.5705 77.4372 48.6166 79.0085 48.2155V48.2155ZM45.6705 28.2071C46.9893 28.2071 48.2784 28.5937 49.3749 29.318C50.4713 30.0423 51.3259 31.0718 51.8306 32.2763C52.3352 33.4808 52.4673 34.8062 52.21 36.0849C51.9527 37.3636 51.3177 38.5381 50.3852 39.46C49.4528 40.3819 48.2647 41.0097 46.9713 41.2641C45.6779 41.5184 44.3373 41.3879 43.119 40.889C41.9006 40.39 40.8593 39.5451 40.1266 38.4611C39.394 37.3771 39.0029 36.1026 39.0029 34.7989C39.0047 33.0512 39.7078 31.3755 40.9578 30.1397C42.2078 28.9039 43.9027 28.2088 45.6705 28.2071V28.2071ZM34.003 71.054C32.6843 71.054 31.3952 70.6674 30.2987 69.9431C29.2022 69.2187 28.3476 68.1892 27.8429 66.9847C27.3383 65.7802 27.2063 64.4548 27.4635 63.1762C27.7208 61.8975 28.3558 60.7229 29.2883 59.801C30.2208 58.8791 31.4088 58.2513 32.7022 57.997C33.9956 57.7426 35.3362 57.8732 36.5546 58.3721C37.7729 58.871 38.8142 59.7159 39.5469 60.7999C40.2795 61.884 40.6706 63.1584 40.6706 64.4622C40.6682 66.2098 39.9647 67.8851 38.7144 69.1205C37.4641 70.3559 35.7692 71.0504 34.0015 71.0518L34.003 71.054Z" fill="url(#paint0_linear)"/>
<defs>
<linearGradient id="paint0_linear" x1="23.76" y1="103.76" x2="104.24" y2="24.24" gradientUnits="userSpaceOnUse">
<stop offset="0.05" stop-color="#AF77E0"/>
<stop offset="0.95" stop-color="#7028AF"/>
</linearGradient>
</defs>
</svg>