<svg width="274" height="148" viewBox="0 0 274 148" fill="none" xmlns="http://www.w3.org/2000/svg">
    <path d="M26.726 17.9801C26.7496 17.9686 26.774 17.9585 26.799 17.9501C26.847 17.9321 26.9169 17.905 27.0049 17.868C27.2519 17.7782 27.5044 17.7044 27.7609 17.6471C28.125 17.5656 28.496 17.5186 28.8689 17.5062C29.2986 17.4942 29.7283 17.5276 30.1509 17.6061C30.5701 17.6837 30.9798 17.806 31.3729 17.9711C31.7198 18.1176 32.0517 18.2976 32.3639 18.5082C32.5877 18.6572 32.8013 18.8212 33.0029 18.9991C33.0617 19.0466 33.1178 19.0975 33.1709 19.1512L33.2289 19.2062L42.6189 9.50622L42.434 9.32922C42.314 9.21422 42.1339 9.04514 41.8999 8.84314C41.2534 8.27584 40.5703 7.75162 39.855 7.27404C37.667 5.81017 35.2028 4.80912 32.6139 4.33215C29.1637 3.69415 25.6054 3.99894 22.314 5.21423L21.6379 5.48107C21.4819 5.54307 21.4009 5.58117 21.4009 5.58117L26.726 17.9801Z" fill="#7029AF" />
    <path d="M23.054 23.5681C23.054 23.5241 23.0609 23.4299 23.0619 23.2329C23.0619 23.1329 23.08 23.0219 23.086 22.8879C23.109 22.7569 23.1169 22.606 23.1519 22.447C23.2964 21.6558 23.5995 20.902 24.0429 20.231C24.4952 19.5479 25.0785 18.9614 25.759 18.5051C25.9816 18.3577 26.213 18.224 26.452 18.105L26.7249 17.979L21.3949 5.5791L21.16 5.68408C21.008 5.75508 20.7819 5.85099 20.5009 5.98999C18.6324 6.90862 16.9221 8.11871 15.434 9.57495C14.4351 10.5483 13.5446 11.6269 12.778 12.792C12.0071 13.9606 11.3634 15.2083 10.858 16.5139C10.4163 17.6569 10.084 18.8392 9.86589 20.0449C9.76589 20.5729 9.70993 21.0631 9.65593 21.4961C9.61793 21.9301 9.58692 22.3091 9.57292 22.6211C9.55292 23.2421 9.54995 23.6141 9.55095 23.5701L23.054 23.5681Z" fill="#AF77E0" />
    <path d="M23.054 23.568H9.55298V38.516H23.054V23.568Z" fill="#7029AF" />
    <path d="M23.054 38.515H9.55298V53.463H23.054V38.515Z" fill="#74D4FF" />
    <path d="M24.054 52.463H10.553V67.411H24.054V52.463Z" fill="#2B44FF" />
    <path d="M13.7579 85.653L13.9709 85.528L14.559 85.152C15.2539 84.6962 15.9217 84.2005 16.559 83.6671C17.4569 82.9127 18.2898 82.084 19.049 81.1901C19.9215 80.166 20.6943 79.0609 21.3569 77.89C22.0214 76.7126 22.5699 75.4735 22.9949 74.1901C23.3652 73.0679 23.6419 71.9168 23.8219 70.7489C23.8889 70.2359 23.9559 69.765 23.9819 69.349L24.0249 68.7631C24.0349 68.5821 24.0369 68.4151 24.0419 68.2631C24.0479 67.9721 24.0529 67.7421 24.0559 67.5861V67.4181H10.5559V67.5861C10.5559 67.6491 10.556 67.7401 10.548 67.8571C10.548 67.9101 10.548 67.971 10.548 68.035C10.548 68.099 10.5359 68.169 10.5299 68.243C10.5299 68.393 10.493 68.556 10.476 68.743C10.4105 69.1527 10.3128 69.5567 10.184 69.951C10.0338 70.4056 9.83947 70.8444 9.60388 71.2611C9.00834 72.3168 8.1686 73.2145 7.15491 73.879L6.94495 74.016L6.86792 74.059L13.7579 85.653Z" fill="#74D4FF" />
    <path d="M0 74.283C0 114.623 54.57 147.766 94.958 147.766C104.556 147.772 114.061 145.887 122.93 142.219C131.799 138.551 139.86 133.173 146.65 126.39C153.441 119.607 158.829 111.554 162.507 102.689C166.185 93.8235 168.081 84.3208 168.087 74.723C168.087 34.383 111.879 1.68002 71.487 1.68002C31.095 1.68002 0 33.946 0 74.283Z" fill="#E6E6E6" />
    <path d="M105.625 56.3159L105.715 56.3611L105.96 56.5039L106.136 56.604L106.336 56.7339L106.566 56.8799L106.811 57.0569C107.648 57.6634 108.389 58.3916 109.011 59.2171C109.624 60.0395 110.108 60.9497 110.448 61.917L110.548 62.199C110.577 62.289 110.597 62.376 110.622 62.458L110.689 62.6851L110.733 62.885L110.798 63.159C110.812 63.222 110.816 63.2591 110.816 63.2591L124.059 60.637C124.059 60.637 124.046 60.5561 124.014 60.4051L123.865 59.7549L123.754 59.292L123.602 58.752C123.546 58.56 123.49 58.3519 123.422 58.1399C123.354 57.9279 123.274 57.704 123.196 57.47C121.601 52.9082 118.643 48.9468 114.722 46.1221L114.148 45.7151L113.616 45.3699L113.145 45.0701L112.735 44.8321C112.487 44.6891 112.292 44.576 112.157 44.502L111.948 44.3941L105.625 56.3159Z" fill="white" />
    <path d="M97.0341 55.981C97.0341 55.981 97.0651 55.964 97.1251 55.94L97.3881 55.8401C97.4451 55.8181 97.5061 55.7901 97.5751 55.7651L97.8001 55.69C97.8801 55.664 97.9641 55.63 98.0551 55.604L98.3421 55.523L98.4951 55.478L98.6561 55.4431L98.9941 55.364C99.2291 55.327 99.4741 55.2711 99.7341 55.2471C100.276 55.1763 100.824 55.1525 101.37 55.176C101.914 55.2 102.456 55.2646 102.99 55.3692C103.453 55.4702 103.909 55.5997 104.355 55.7571C104.549 55.8311 104.727 55.9031 104.884 55.9651C105.041 56.0271 105.173 56.098 105.284 56.146L105.625 56.322L111.949 44.3941L111.149 43.9851L110.206 43.5581C109.837 43.4041 109.418 43.235 108.957 43.065C107.9 42.6867 106.818 42.3804 105.719 42.148C104.459 41.8936 103.18 41.7395 101.895 41.687C99.4869 41.593 97.0787 41.8706 94.7551 42.51L94.0751 42.71C93.8601 42.775 93.6601 42.8472 93.4701 42.9102L92.9401 43.0921C92.7771 43.1511 92.6301 43.212 92.4961 43.263L91.8771 43.511C91.7351 43.57 91.6611 43.605 91.6611 43.605L97.0341 55.981Z" fill="#AF77E0" />
    <path d="M91.326 62.501L91.353 62.4009C91.373 62.3389 91.3901 62.2449 91.4341 62.1309C91.4781 62.0169 91.518 61.8761 91.577 61.7171C91.636 61.5581 91.7021 61.379 91.7931 61.19C92.208 60.2484 92.7648 59.376 93.4441 58.6031C93.8084 58.1888 94.2035 57.8027 94.6261 57.448C94.9997 57.1473 95.3907 56.8688 95.7971 56.614C95.9801 56.514 96.1441 56.4141 96.2971 56.3311L96.6891 56.1309L97.0381 55.9739L91.6631 43.5889L90.842 43.9619C90.584 44.0869 90.275 44.2479 89.921 44.4309C89.567 44.6139 89.1811 44.847 88.7581 45.095C87.8084 45.6827 86.8981 46.3318 86.0331 47.0381C85.0498 47.8555 84.1323 48.7488 83.2891 49.71C82.4436 50.671 81.6792 51.7007 81.004 52.7881C80.4124 53.7384 79.8891 54.7294 79.4381 55.7539C79.2331 56.1999 79.08 56.6271 78.931 56.9971C78.782 57.3671 78.685 57.7051 78.592 57.9761C78.499 58.2471 78.4421 58.467 78.3971 58.614L78.332 58.8421L91.326 62.501Z" fill="white" />
    <path d="M90.9521 75.562V65.1821V65.082C90.9521 65.018 90.9521 64.9541 90.9581 64.8911C90.9572 64.7679 90.9625 64.6446 90.9741 64.5219L90.9991 64.174C91.0141 64.063 91.0281 63.955 91.0411 63.852C91.0839 63.5198 91.1454 63.1902 91.2252 62.865C91.243 62.7728 91.2657 62.6817 91.2932 62.592L91.3212 62.4919L78.3212 58.8359L78.2572 59.0639C78.2132 59.2109 78.1571 59.4299 78.0931 59.7099C77.9062 60.4816 77.7607 61.2628 77.6571 62.05L77.5631 62.813C77.5424 63.0796 77.5211 63.3524 77.4991 63.6311C77.4741 63.9121 77.4661 64.2001 77.4591 64.4961C77.4558 64.6441 77.4526 64.7934 77.4492 64.9441C77.4492 65.0201 77.4492 65.0951 77.4492 65.1711V75.5549L90.9521 75.562Z" fill="#AF77E0" />
    <path d="M90.625 91.5381C90.625 91.5381 90.639 91.4619 90.657 91.3169L90.738 90.6909C90.772 90.4199 90.817 90.0911 90.838 89.7161C90.852 89.5271 90.868 89.326 90.884 89.116C90.9 88.906 90.916 88.682 90.92 88.449C90.924 88.216 90.9321 87.9739 90.9391 87.7239C90.9391 87.5989 90.944 87.472 90.947 87.343V75.563H77.447V87.3411C77.447 87.4061 77.4471 87.4709 77.4401 87.5349C77.4401 87.6619 77.434 87.7851 77.431 87.9031C77.4306 88.0157 77.4242 88.1281 77.412 88.24C77.404 88.346 77.396 88.4481 77.389 88.5401C77.381 88.7311 77.3541 88.8941 77.3361 89.0301C77.3181 89.1661 77.306 89.273 77.297 89.345C77.288 89.417 77.282 89.4561 77.282 89.4561L90.625 91.5381Z" fill="white" />
    <path d="M80.9801 108.395C80.9801 108.395 81.04 108.346 81.15 108.251L81.6251 107.841L81.9631 107.541C82.0841 107.432 82.211 107.309 82.348 107.179C82.62 106.918 82.934 106.631 83.248 106.291L83.748 105.766C83.92 105.586 84.0851 105.385 84.2611 105.187C84.4371 104.989 84.6171 104.782 84.7911 104.563L85.3201 103.891C85.5031 103.665 85.6711 103.423 85.8451 103.18C86.0191 102.937 86.198 102.693 86.363 102.436C86.695 101.925 87.0341 101.405 87.3351 100.863C88.4732 98.8852 89.3569 96.7714 89.9651 94.572C90.0991 94.125 90.188 93.7061 90.275 93.3371L90.3931 92.8191L90.4751 92.375L90.6251 91.5329L77.2861 89.4521L77.2081 89.874L77.17 90.0959L77.108 90.3549C77.062 90.5389 77.0251 90.7551 76.9531 90.9741C76.6479 92.0807 76.2029 93.1437 75.629 94.1379C75.0539 95.141 74.3555 96.0683 73.55 96.8979C73.392 97.0749 73.2271 97.217 73.0901 97.351C73.0201 97.418 72.957 97.4821 72.895 97.5371L72.7211 97.686L72.4801 97.896C72.4241 97.945 72.394 97.9699 72.394 97.9699L80.9801 108.395Z" fill="#AF77E0" />
    <path d="M62.5601 114.59L63.4131 114.612C63.6841 114.624 64.013 114.612 64.391 114.602L64.991 114.585C65.203 114.576 65.4261 114.555 65.6581 114.54C69.1581 114.284 72.5753 113.353 75.7211 111.797C76.2401 111.533 76.742 111.278 77.199 111.004C77.429 110.87 77.655 110.743 77.869 110.612L78.48 110.221C78.874 109.974 79.22 109.721 79.527 109.505L79.9561 109.197L80.3101 108.922L80.978 108.395L72.395 97.974L72.053 98.2411L71.874 98.3829L71.6541 98.5379C71.4981 98.6489 71.3251 98.779 71.1221 98.901C70.1594 99.5299 69.1207 100.034 68.031 100.401C66.9463 100.769 65.8187 100.996 64.676 101.077C64.559 101.085 64.447 101.099 64.34 101.103L64.04 101.109C63.849 101.109 63.682 101.126 63.54 101.116L63.108 101.105L62.5601 114.59Z" fill="white" />
    <path d="M44.7151 106.909L45.3311 107.494C45.7391 107.851 46.3131 108.369 47.0521 108.932C47.4121 109.225 47.8301 109.507 48.2621 109.817C48.4761 109.975 48.7121 110.117 48.9451 110.269C49.1781 110.421 49.4182 110.579 49.6702 110.724C50.7135 111.349 51.7961 111.906 52.9111 112.391C55.0102 113.293 57.213 113.931 59.4691 114.291C59.9311 114.358 60.3551 114.409 60.7311 114.457C61.1071 114.505 61.4371 114.518 61.7081 114.541C61.9791 114.564 62.1922 114.58 62.3372 114.584L62.5601 114.591L63.1101 101.101H62.9971C62.9231 101.101 62.8161 101.086 62.6801 101.076C62.5441 101.066 62.3801 101.06 62.1881 101.036L61.5541 100.953C60.4234 100.771 59.3193 100.451 58.2661 100.001C57.9821 99.869 57.6941 99.7469 57.4231 99.6009C57.1441 99.4689 56.8871 99.3009 56.6301 99.1619C56.5021 99.0899 56.3842 99.003 56.2642 98.93C56.1442 98.857 56.0231 98.785 55.9171 98.701C55.7001 98.539 55.4821 98.401 55.3021 98.251C54.9241 97.966 54.6351 97.6971 54.4241 97.5201L54.1111 97.22L44.7151 106.909Z" fill="#AF77E0" />
    <path d="M36.4773 89.315L36.5463 90.167C36.6153 90.707 36.6973 91.481 36.8773 92.397C37.0759 93.4421 37.3336 94.4751 37.6493 95.491L37.9343 96.3321C37.9833 96.4741 38.0344 96.618 38.0844 96.76L38.2513 97.1851C38.3653 97.4691 38.4753 97.758 38.5973 98.042L38.9813 98.8899C39.9536 100.947 41.1743 102.878 42.6163 104.638C42.9163 104.993 43.1963 105.313 43.4443 105.597C43.6923 105.881 43.9283 106.111 44.1143 106.307C44.3003 106.503 44.4493 106.656 44.5553 106.755L44.7163 106.909L54.1163 97.2149L54.0333 97.137C53.9773 97.089 53.9033 97.009 53.8093 96.908C53.7153 96.807 53.5963 96.6889 53.4663 96.5469L53.0443 96.0579C52.3151 95.164 51.6966 94.1854 51.2023 93.1431L51.0073 92.7171C50.9453 92.5741 50.8933 92.4279 50.8353 92.2859L50.7493 92.073C50.7223 92.001 50.7003 91.928 50.6763 91.857L50.5312 91.4351C50.3749 90.9258 50.2468 90.4084 50.1473 89.885C50.0533 89.427 50.0193 89.0369 49.9783 88.7669L49.9463 88.3379L36.4773 89.315Z" fill="white" />
    <path d="M36.3992 73.8819V87.3421C36.3992 87.3901 36.3992 87.4419 36.3992 87.4859C36.4082 87.8639 36.4172 88.1929 36.4232 88.4649C36.4292 88.7369 36.4472 88.9491 36.4572 89.0941L36.4742 89.317L49.9392 88.3389C49.9392 88.3389 49.9392 88.3001 49.9302 88.2271C49.9212 88.1541 49.9112 88.047 49.9122 87.909C49.9132 87.771 49.9042 87.609 49.8992 87.409C49.8992 87.386 49.8992 87.361 49.8992 87.336V73.877L36.3992 73.8819Z" fill="#AF77E0" />
    <path d="M49.9002 58.935H36.3992V73.883H49.9002V58.935Z" fill="white" />
    <path d="M49.9002 43.988H36.3992V58.936H49.9002V43.988Z" fill="#AF77E0" />
    <path d="M49.9002 29.04H36.3992V43.988H49.9002V29.04Z" fill="white" />
    <path d="M34.5542 20.012L34.6132 20.0659C34.6512 20.1019 34.7013 20.16 34.7703 20.23C34.9552 20.4259 35.126 20.6348 35.2812 20.855C35.7504 21.5103 36.0826 22.2535 36.2582 23.04C36.3514 23.4587 36.3986 23.8861 36.3992 24.3149V29.041H49.8992V26.7061C49.8992 26.0061 49.8992 25.1849 49.8992 24.3059C49.8938 20.2523 48.6223 16.3018 46.2622 13.0061C45.7632 12.3055 45.2176 11.6392 44.6292 11.012C44.4142 10.787 44.2472 10.6119 44.1292 10.4929L43.9452 10.3149L34.5542 20.012Z" fill="#AF77E0" />
    <path d="M28.0521 18.7891C28.0758 18.7776 28.1002 18.7675 28.1251 18.7591C28.1731 18.7411 28.2431 18.714 28.3311 18.677C28.578 18.5872 28.8305 18.5134 29.087 18.4561C29.4512 18.3746 29.8221 18.3275 30.1951 18.3152C30.6247 18.3032 31.0544 18.3366 31.4771 18.4151C31.8963 18.4927 32.306 18.615 32.6991 18.7801C33.046 18.9266 33.3779 19.1066 33.6901 19.3172C33.9139 19.4662 34.1274 19.6302 34.3291 19.8081C34.3879 19.8556 34.444 19.9065 34.4971 19.9602L34.5551 20.0152L43.9451 10.3152L43.7601 10.1382C43.6401 10.0232 43.4601 9.85413 43.2261 9.65213C42.5796 9.08483 41.8965 8.56061 41.1812 8.08303C38.9932 6.61916 36.529 5.61811 33.9401 5.14114C30.4899 4.50314 26.9316 4.80793 23.6401 6.02322L22.9641 6.29007C22.8081 6.35207 22.7271 6.39016 22.7271 6.39016L28.0521 18.7891Z" fill="white" />
    <path d="M70.754 29.176C70.754 31.032 69.826 32.632 67.522 32.632C65.218 32.632 64.258 31 64.226 28.952H61.314C61.314 32.856 63.81 35.224 67.522 35.224C71.202 35.224 73.698 32.888 73.698 29.176V12.696H70.754V29.176ZM96.0747 26.2C96.0747 20.664 92.2027 17.176 87.2107 17.176C82.2507 17.176 78.3467 20.664 78.3467 26.2C78.3467 31.768 82.1227 35.288 87.0827 35.288C92.0747 35.288 96.0747 31.768 96.0747 26.2ZM81.3227 26.2C81.3227 21.784 84.1067 19.704 87.1787 19.704C90.1867 19.704 93.0987 21.784 93.0987 26.2C93.0987 30.648 90.1227 32.728 87.0827 32.728C84.0427 32.728 81.3227 30.648 81.3227 26.2ZM102.815 25.464C102.815 21.4 104.927 20.152 107.711 20.152H108.479V17.144C105.695 17.144 103.807 18.36 102.815 20.312V17.464H99.9035V35H102.815V25.464ZM124.673 35H127.553V24.664C127.553 19.64 124.449 17.144 120.385 17.144C118.017 17.144 115.905 18.136 114.753 19.96V17.464H111.841V35H114.753V25.304C114.753 21.528 116.801 19.672 119.777 19.672C122.721 19.672 124.673 21.496 124.673 25.08V35ZM131.222 26.168C131.222 31.608 134.838 35.288 139.51 35.288C142.742 35.288 145.014 33.624 146.07 31.736V35H149.014V17.464H146.07V20.664C145.046 18.84 142.806 17.176 139.542 17.176C134.838 17.176 131.222 20.696 131.222 26.168ZM146.07 26.2C146.07 30.328 143.318 32.728 140.118 32.728C136.918 32.728 134.198 30.296 134.198 26.168C134.198 22.04 136.918 19.704 140.118 19.704C143.318 19.704 146.07 22.136 146.07 26.2ZM152.847 26.168C152.847 31.608 156.463 35.288 161.167 35.288C164.367 35.288 166.639 33.656 167.695 31.704V35H170.639V11.32H167.695V20.6C166.479 18.584 163.951 17.176 161.199 17.176C156.463 17.176 152.847 20.696 152.847 26.168ZM167.695 26.2C167.695 30.328 164.943 32.728 161.743 32.728C158.543 32.728 155.823 30.296 155.823 26.168C155.823 22.04 158.543 19.704 161.743 19.704C164.943 19.704 167.695 22.136 167.695 26.2ZM174.472 26.168C174.472 31.608 178.088 35.288 182.76 35.288C185.992 35.288 188.264 33.624 189.32 31.736V35H192.264V17.464H189.32V20.664C188.296 18.84 186.056 17.176 182.792 17.176C178.088 17.176 174.472 20.696 174.472 26.168ZM189.32 26.2C189.32 30.328 186.568 32.728 183.368 32.728C180.168 32.728 177.448 30.296 177.448 26.168C177.448 22.04 180.168 19.704 183.368 19.704C186.568 19.704 189.32 22.136 189.32 26.2ZM204.628 26.168C204.628 31.608 208.244 35.288 212.948 35.288C216.148 35.288 218.42 33.656 219.476 31.704V35H222.42V11.32H219.476V20.6C218.26 18.584 215.732 17.176 212.98 17.176C208.244 17.176 204.628 20.696 204.628 26.168ZM219.476 26.2C219.476 30.328 216.724 32.728 213.524 32.728C210.324 32.728 207.604 30.296 207.604 26.168C207.604 22.04 210.324 19.704 213.524 19.704C216.724 19.704 219.476 22.136 219.476 26.2ZM243.981 26.2C243.981 20.664 240.109 17.176 235.117 17.176C230.157 17.176 226.253 20.664 226.253 26.2C226.253 31.768 230.029 35.288 234.989 35.288C239.981 35.288 243.981 31.768 243.981 26.2ZM229.229 26.2C229.229 21.784 232.013 19.704 235.085 19.704C238.093 19.704 241.005 21.784 241.005 26.2C241.005 30.648 238.029 32.728 234.989 32.728C231.949 32.728 229.229 30.648 229.229 26.2Z" fill="#5F5F77" />
    <path d="M109.031 96.167C109.031 120.62 126.932 137.702 149.747 137.702C167.414 137.702 181.454 128.927 187.538 113.249H174.785C170.339 122.96 161.681 128.459 149.747 128.459C132.665 128.459 119.912 116.057 119.912 96.167C119.912 76.16 132.665 63.758 149.747 63.758C161.681 63.758 170.339 69.257 174.785 79.085H187.538C181.454 63.29 167.414 54.398 149.747 54.398C126.932 54.398 109.031 71.714 109.031 96.167ZM233.924 125.768L208.301 55.451H196.952L227.723 137H240.008L270.779 55.451H259.547L233.924 125.768Z" fill="#5F5F77" />
</svg>